<svg width="17" height="16" viewBox="0 0 17 16" fill="none" xmlns="http://www.w3.org/2000/svg">
<path fill-rule="evenodd" clip-rule="evenodd" d="M9.44769 1.89432L4.17497 4.53069C3.89641 4.66996 3.67055 4.89583 3.53127 5.17438C3.24021 5.75652 3.0444 6.37238 2.94385 6.9999H17.0005V8.9999H2.94385C3.0444 9.62741 3.2402 10.2433 3.53127 10.8254C3.67055 11.104 3.89641 11.3298 4.17497 11.4691L9.44769 14.1055L8.55327 15.8943L3.28054 13.258C2.61493 12.9252 2.07522 12.3854 1.74242 11.7198C0.571538 9.37808 0.571538 6.62171 1.74242 4.27996C2.07522 3.61435 2.61493 3.07464 3.28054 2.74183L3.70987 3.60048L3.28054 2.74183L8.55327 0.105469L9.44769 1.89432Z" fill="white"/>
</svg>
